<?xml version="1.0" standalone="no"?>
<!DOCTYPE svg PUBLIC "-//W3C//DTD SVG 20010904//EN"
 "http://www.w3.org/TR/2001/REC-SVG-20010904/DTD/svg10.dtd">
<svg version="1.0" xmlns="http://www.w3.org/2000/svg"
 width="405.000000pt" height="93.000000pt" viewBox="0 0 405.000000 93.000000"
 preserveAspectRatio="xMidYMid meet">

<g transform="translate(0.000000,93.000000) scale(0.100000,-0.100000)"
fill="#000000" stroke="none">
<path d="M1965 874 c-81 -69 -183 -86 -275 -45 -76 34 -200 35 -282 3 -178
-71 -274 -287 -208 -467 42 -115 36 -196 -22 -276 -26 -37 -27 -39 -7 -28 44
23 851 841 828 839 -2 -1 -17 -12 -34 -26z m-289 -119 c47 -23 54 -30 54 -56
0 -16 -2 -29 -5 -29 -3 0 -30 14 -59 31 -44 24 -66 30 -114 30 -204 1 -321
-217 -207 -385 14 -20 25 -39 25 -42 0 -3 -15 -4 -32 -2 -28 3 -37 10 -58 53
-28 57 -38 150 -21 210 49 182 248 273 417 190z m-8 -78 c23 -15 42 -35 42
-45 0 -9 -68 -85 -150 -167 -164 -164 -161 -163 -207 -96 -67 98 -23 260 87
319 64 34 168 29 228 -11z"/>
<path d="M2190 545 l0 -295 30 0 30 0 0 295 0 295 -30 0 -30 0 0 -295z"/>
<path d="M3990 725 c0 -63 -2 -115 -4 -115 -3 0 -18 12 -33 26 -43 40 -78 54
-147 61 -110 10 -194 -34 -241 -126 -27 -53 -24 -159 7 -218 36 -71 89 -104
177 -111 89 -6 148 10 201 55 l40 35 0 -41 c0 -39 2 -41 30 -41 l30 0 0 295 0
295 -30 0 -30 0 0 -115z m-90 -107 c67 -35 85 -66 85 -148 0 -76 -16 -107 -73
-146 -60 -41 -173 -41 -235 0 -94 63 -88 243 10 295 55 29 154 28 213 -1z"/>
<path d="M158 690 c-117 -35 -180 -157 -149 -287 25 -101 106 -162 217 -163
77 0 142 22 184 63 l33 32 -5 -58 c-5 -62 -27 -95 -83 -125 -47 -24 -168 -21
-230 6 -47 22 -50 22 -62 6 -20 -27 -16 -34 34 -57 39 -18 66 -22 148 -22 127
0 183 24 230 100 l30 48 4 224 3 223 -36 0 c-35 0 -36 -1 -36 -36 l0 -36 -41
35 c-59 51 -162 71 -241 47z m202 -73 c57 -30 80 -74 80 -153 0 -109 -67 -169
-190 -169 -101 0 -164 47 -180 134 -15 85 16 160 81 193 51 27 154 24 209 -5z"/>
<path d="M818 690 c-40 -12 -96 -48 -113 -73 -14 -21 -15 -20 -15 21 0 41 0
42 -35 42 l-35 0 2 -212 3 -213 33 -3 32 -3 0 139 c0 128 2 142 23 173 47 72
174 102 245 59 56 -35 72 -84 72 -237 l0 -133 30 0 30 0 0 148 c-1 197 -18
243 -105 283 -42 19 -119 23 -167 9z"/>
<path d="M2500 686 c-99 -29 -120 -47 -86 -75 10 -8 25 -6 61 10 58 26 163 29
217 6 47 -20 67 -51 75 -117 l6 -54 -39 31 c-50 39 -93 53 -164 53 -151 0
-246 -93 -204 -200 24 -58 84 -92 178 -98 87 -5 146 10 189 48 l32 28 10 -31
c8 -26 16 -33 44 -35 29 -3 33 -1 26 15 -5 10 -11 83 -14 163 -4 80 -12 154
-18 165 -15 26 -62 69 -92 85 -36 18 -168 22 -221 6z m190 -221 c47 -23 80
-55 80 -76 0 -24 -63 -76 -107 -88 -48 -14 -118 -14 -162 -1 -107 30 -110 140
-6 179 42 15 153 8 195 -14z"/>
<path d="M3145 684 c-22 -8 -57 -31 -77 -51 l-38 -37 0 42 c0 40 -1 42 -30 42
l-30 0 0 -215 0 -215 30 0 30 0 0 130 c0 142 6 164 57 212 79 75 210 63 263
-24 17 -29 20 -51 20 -176 l0 -143 33 3 32 3 0 135 c0 168 -7 201 -52 250 -53
59 -148 77 -238 44z"/>
<path d="M1832 614 c-7 -14 -9 -51 -5 -107 5 -70 2 -96 -12 -134 -25 -64 -85
-126 -148 -153 -46 -20 -62 -22 -140 -16 -58 4 -96 2 -110 -5 -20 -12 -20 -12
4 -24 49 -26 143 -38 199 -26 161 35 265 160 264 321 0 53 -6 88 -20 120 -19
42 -21 44 -32 24z"/>
<path d="M1767 517 c7 -81 -8 -127 -59 -183 -53 -57 -110 -79 -188 -71 -58 7
-83 -5 -37 -17 82 -22 167 3 234 70 66 66 86 135 67 233 -11 55 -23 33 -17
-32z"/>
<path d="M1992 324 c-39 -27 -23 -84 24 -84 46 0 59 60 19 86 -18 12 -24 11
-43 -2z"/>
</g>
</svg>
